<svg width="24" height="24" viewBox="0 0 24 24" fill="none" xmlns="http://www.w3.org/2000/svg">
<g id="cyborg" clip-path="url(#clip0_533_2339)">
<g id="Group">
<path id="Vector" d="M15.5176 7.40795C15.5176 8.15962 16.1486 8.77147 16.9238 8.77147H21.1042C21.0283 7.81192 20.7988 6.89491 20.4316 6.04443H16.9238C16.1486 6.04443 15.5176 6.65629 15.5176 7.40795Z" fill="#232536"/>
<path id="Vector_2" d="M6.37695 23.8609H14.8145C15.2031 23.8609 15.5176 23.5559 15.5176 23.1791V19.6794H16.9238V15.248L9.893 10.1348H3.56445C3.17581 10.1348 2.86133 10.4397 2.86133 10.8165C2.86133 13.2313 3.88236 15.5443 5.67383 17.212V23.1791C5.67383 23.5559 5.98831 23.8609 6.37695 23.8609Z" fill="#FFD050"/>
<path id="Vector_3" d="M12.002 0.590332C11.6133 0.590332 11.2988 0.89526 11.2988 1.27209V1.95385H8.35681C8.06558 1.16201 7.29242 0.590332 6.37695 0.590332C5.2138 0.590332 4.26758 1.5078 4.26758 2.63561C4.26758 3.76342 5.2138 4.68089 6.37695 4.68089C7.29242 4.68089 8.06558 4.10921 8.35681 3.31737H11.2988V6.04441H4.13806C3.84683 5.25257 3.07367 4.68089 2.1582 4.68089C0.995047 4.68089 0.00195312 5.59836 0.00195312 6.72617C0.00195312 7.85398 0.995047 8.77145 2.1582 8.77145C3.07367 8.77145 3.84683 8.19977 4.13806 7.40793H11.2988V9.45353L18.0485 14.362C18.2257 14.4905 18.3301 14.6929 18.3301 14.9073V19.6796H19.0332C20.1964 19.6796 21.1426 18.7621 21.1426 17.6343V14.2255H23.2988C23.5584 14.2255 23.7966 14.087 23.9189 13.8653C24.0411 13.6436 24.0274 13.3746 23.8839 13.1656L21.7533 10.135H16.9238C15.3727 10.135 14.1113 8.91194 14.1113 7.40793C14.1113 5.90392 15.3727 4.68089 16.9238 4.68089H19.6897C18.0628 2.22556 15.2291 0.590332 12.002 0.590332V0.590332Z" fill="#232536"/>
</g>
</g>
<defs>
<clipPath id="clip0_533_2339">
<rect width="24" height="23.2707" fill="white" transform="translate(0 0.590332)"/>
</clipPath>
</defs>
</svg>
