<svg width="23" height="24" viewBox="0 0 23 24" fill="none" xmlns="http://www.w3.org/2000/svg">
<g id="economy (1)" clip-path="url(#clip0_533_2312)">
<g id="Group">
<g id="Group_2">
<path id="Vector" d="M5.11557 15.5469H2.53171C1.5999 15.5469 0.841797 16.3154 0.841797 17.2599V22.809C0.841797 23.3891 1.30738 23.861 1.87959 23.861H5.76759C6.33985 23.861 6.80544 23.3891 6.80544 22.809V17.26C6.80544 16.3154 6.04738 15.5469 5.11557 15.5469Z" fill="#232536"/>
</g>
</g>
<g id="Group_3">
<g id="Group_4">
<path id="Vector_2" d="M12.6996 12.1763H10.1157C9.18389 12.1763 8.42578 12.9448 8.42578 13.8893V22.8087C8.42578 23.3887 8.89137 23.8607 9.46363 23.8607H13.3516C13.9239 23.8607 14.3894 23.3887 14.3894 22.8087V13.8893C14.3894 12.9447 13.6314 12.1763 12.6996 12.1763Z" fill="#232536"/>
</g>
</g>
<g id="Group_5">
<g id="Group_6">
<path id="Vector_3" d="M20.4261 8.33643H17.8423C16.9104 8.33643 16.1523 9.10491 16.1523 10.0494V22.8089C16.1523 23.389 16.6179 23.8609 17.1901 23.8609H21.0781C21.6504 23.8609 22.1159 23.389 22.1159 22.8089V10.0494C22.116 9.10491 21.3579 8.33643 20.4261 8.33643Z" fill="#232536"/>
</g>
</g>
<g id="Group_7">
<g id="Group_8">
<path id="Vector_4" d="M18.3681 1.23817C18.052 0.785302 17.538 0.545822 16.9929 0.596545L12.1128 1.05423C11.5678 1.10537 11.1059 1.4367 10.8771 1.94061C10.6483 2.44453 10.7004 3.0158 11.0165 3.46867L11.2889 3.85891L5.23176 8.10169L5.22557 8.1061C4.79576 8.41439 4.51015 8.87394 4.42133 9.40004C4.33251 9.92613 4.45106 10.4558 4.75519 10.8915C5.05932 11.3271 5.51266 11.6167 6.03165 11.7068C6.1441 11.7263 6.25669 11.7359 6.36851 11.7359C6.77133 11.7359 7.1637 11.6107 7.49957 11.3708L13.5664 7.12136L13.8476 7.5241C14.1357 7.93675 14.588 8.1725 15.0783 8.1725C15.1261 8.1725 15.1743 8.17023 15.2228 8.16573C15.7677 8.1146 16.2297 7.78322 16.4585 7.27926L18.5076 2.76623C18.7364 2.26222 18.6843 1.691 18.3681 1.23817Z" fill="#FFD050"/>
</g>
</g>
</g>
<defs>
<clipPath id="clip0_533_2312">
<rect width="22.9565" height="23.2707" fill="white" transform="translate(0 0.590332)"/>
</clipPath>
</defs>
</svg>
